<?xml version="1.0" encoding="iso-8859-1"?>
<!-- Generator: Adobe Illustrator 19.0.0, SVG Export Plug-In . SVG Version: 6.00 Build 0)  -->
<svg version="1.1" id="Capa_1" xmlns="http://www.w3.org/2000/svg" xmlns:xlink="http://www.w3.org/1999/xlink" x="0px" y="0px"
	 viewBox="0 0 511.999 511.999" style="enable-background:new 0 0 511.999 511.999;" xml:space="preserve">
<polygon style="fill:#ED4596;" points="411.528,312.053 411.528,448.109 263.521,500.897 115.514,448.109 115.514,312.053 
	263.521,240.33 "/>
<polygon style="fill:#F777CE;" points="263.521,240.33 263.521,500.897 115.514,448.109 115.514,312.053 "/>
<polygon style="fill:#CEC1E8;" points="411.528,240.33 263.521,293.117 115.514,240.33 263.521,187.543 "/>
<g>
	<polygon style="fill:#EDE6F5;" points="263.521,187.543 263.521,293.117 115.514,240.33 	"/>
	<polygon style="fill:#EDE6F5;" points="462.998,293.695 411.524,240.331 263.518,293.117 314.991,346.48 	"/>
</g>
<polygon style="fill:#CEC1E8;" points="64.039,293.695 115.511,240.331 263.518,293.117 212.045,346.48 "/>
<g>
	<path style="fill:#F9D366;" d="M409.733,105.11l14.353-2.91c6.776-1.374,6.776-11.057,0-12.431l-14.353-2.91
		c-14.144-2.867-25.197-13.922-28.064-28.064l-2.91-14.353c-1.374-6.776-11.057-6.776-12.431,0l-2.91,14.353
		c-2.867,14.144-13.922,25.197-28.064,28.064l-14.353,2.91c-6.776,1.374-6.776,11.057,0,12.431l14.353,2.91
		c14.144,2.867,25.197,13.922,28.064,28.064l2.91,14.353c1.374,6.776,11.057,6.776,12.431,0l2.91-14.353
		C384.535,119.03,395.589,107.977,409.733,105.11z"/>
	<path style="fill:#F9D366;" d="M253.739,93.461l18.418-3.734c8.695-1.763,8.695-14.19,0-15.953l-18.418-3.734
		c-18.151-3.68-32.336-17.865-36.016-36.016l-3.734-18.418c-1.763-8.695-14.19-8.695-15.953,0l-3.734,18.418
		c-3.68,18.151-17.865,32.336-36.016,36.016l-18.418,3.734c-8.695,1.763-8.695,14.19,0,15.953l18.418,3.734
		c18.151,3.68,32.336,17.865,36.016,36.016l3.734,18.418c1.763,8.695,14.19,8.695,15.953,0l3.734-18.418
		C221.403,111.326,235.588,97.141,253.739,93.461z"/>
</g>
<path d="M86.035,108.861c4.181,0,7.57-3.389,7.57-7.57v-20.06c0-4.181-3.389-7.57-7.57-7.57s-7.57,3.389-7.57,7.57v20.06
	C78.465,105.472,81.853,108.861,86.035,108.861z"/>
<path d="M86.035,162.869c4.181,0,7.57-3.389,7.57-7.57v-20.06c0-4.181-3.389-7.57-7.57-7.57s-7.57,3.389-7.57,7.57v20.06
	C78.465,159.48,81.853,162.869,86.035,162.869z"/>
<path d="M103.008,125.835h20.06c4.181,0,7.57-3.389,7.57-7.57c0-4.181-3.389-7.57-7.57-7.57h-20.06c-4.181,0-7.57,3.389-7.57,7.57
	C95.438,122.446,98.827,125.835,103.008,125.835z"/>
<path d="M76.631,118.265c0-4.181-3.389-7.57-7.57-7.57h-20.06c-4.181,0-7.57,3.389-7.57,7.57c0,4.181,3.389,7.57,7.57,7.57h20.06
	C73.242,125.835,76.631,122.446,76.631,118.265z"/>
<path d="M468.445,291.972l-51.462-53.353c0,0,0,0-0.001,0l-0.009-0.01c-0.006-0.006-0.013-0.01-0.019-0.016
	c-0.79-0.815-1.768-1.459-2.886-1.858l-44.484-15.866c-3.938-1.406-8.268,0.649-9.672,4.586c-1.405,3.937,0.649,8.268,4.586,9.672
	l24.492,8.736l-125.472,44.749l-125.472-44.749l25.203-8.989c3.937-1.404,5.991-5.735,4.586-9.672
	c-1.404-3.937-5.735-5.99-9.672-4.586l-45.194,16.119c-1.117,0.399-2.095,1.044-2.886,1.858c-0.006,0.006-0.013,0.01-0.019,0.016
	l-0.009,0.01h-0.001l-51.462,53.353c-1.785,1.851-2.509,4.481-1.922,6.985c0.587,2.503,2.405,4.538,4.827,5.401l90.612,32.318
	c0.841,0.3,1.699,0.442,2.544,0.442c3.111,0,6.026-1.932,7.13-5.028c1.405-3.937-0.649-8.268-4.586-9.672L77.633,294.04
	l39.937-41.403l132.355,47.205l-39.937,41.403l-25.678-9.158c-3.938-1.406-8.268,0.649-9.672,4.586
	c-1.405,3.937,0.649,8.268,4.586,9.672l30.279,10.799c2.803,1.001,5.928,0.265,7.991-1.874l46.025-47.715l46.025,47.715
	c1.451,1.505,3.43,2.314,5.449,2.314c0.852,0,1.711-0.144,2.541-0.441l148.006-52.787c2.421-0.863,4.239-2.898,4.827-5.401
	C470.955,296.453,470.231,293.823,468.445,291.972z M317.049,341.243l-39.937-41.403l132.355-47.205l39.937,41.403L317.049,341.243z
	"/>
<path d="M340.303,469.008l-76.782,27.385l-140.437-50.088V343.048c0-4.181-3.389-7.57-7.57-7.57c-4.181,0-7.57,3.389-7.57,7.57
	v108.593c0,3.201,2.013,6.055,5.026,7.13l148.007,52.788c0.823,0.294,1.683,0.44,2.543,0.44c0.861,0,1.721-0.147,2.543-0.44
	l79.326-28.292c3.937-1.404,5.991-5.735,4.586-9.672C348.573,469.658,344.242,467.605,340.303,469.008z"/>
<path d="M411.528,335.479c-4.181,0-7.57,3.389-7.57,7.57v103.257l-34.494,12.303c-3.937,1.404-5.991,5.735-4.586,9.672
	c1.104,3.098,4.019,5.028,7.13,5.028c0.844,0,1.703-0.142,2.543-0.442l39.52-14.095c3.014-1.075,5.026-3.929,5.026-7.13V343.048
	C419.098,338.868,415.709,335.479,411.528,335.479z"/>
<path d="M271.091,471.326V342.645c0-4.181-3.389-7.57-7.57-7.57c-4.181,0-7.57,3.389-7.57,7.57v128.682
	c0,4.181,3.389,7.57,7.57,7.57C267.702,478.896,271.091,475.507,271.091,471.326z"/>
<path d="M319.496,113.151l14.353,2.91c11.187,2.268,19.882,10.962,22.15,22.15l2.91,14.353c1.331,6.563,6.938,11.147,13.635,11.147
	s12.304-4.584,13.635-11.148l2.91-14.352c2.268-11.187,10.962-19.882,22.15-22.15l14.353-2.91
	c6.564-1.33,11.147-6.937,11.147-13.635c0-6.697-4.584-12.304-11.147-13.634l-14.353-2.91c-11.187-2.269-19.882-10.962-22.15-22.15
	l-2.91-14.353c-1.331-6.563-6.938-11.147-13.635-11.147s-12.304,4.584-13.635,11.148l-2.91,14.352
	c-2.268,11.187-10.962,19.882-22.15,22.15l-14.353,2.91c-6.564,1.33-11.147,6.937-11.147,13.634
	C308.349,106.214,312.933,111.821,319.496,113.151z M336.857,97.811c17.163-3.48,30.5-16.818,33.98-33.98l1.706-8.416l1.706,8.416
	c3.479,17.162,16.817,30.5,33.98,33.98l8.416,1.706l-8.416,1.706c-17.163,3.479-30.5,16.817-33.98,33.98l-1.706,8.416l-1.706-8.416
	c-3.479-17.163-16.817-30.5-33.98-33.98l-8.416-1.706L336.857,97.811z"/>
<path d="M138.364,95.632l18.418,3.734c15.203,3.082,27.019,14.898,30.101,30.101l3.734,18.418
	c1.503,7.411,7.833,12.587,15.395,12.587s13.893-5.176,15.395-12.587l3.734-18.418c3.082-15.203,14.898-27.019,30.101-30.101
	l18.418-3.734c7.411-1.503,12.587-7.833,12.587-15.395c0-7.562-5.176-13.893-12.587-15.395l-18.418-3.734
	c-15.203-3.082-27.019-14.898-30.101-30.101l-3.734-18.418C219.905,5.176,213.575,0,206.013,0s-13.893,5.176-15.395,12.587
	l-3.734,18.418c-3.082,15.203-14.898,27.019-30.101,30.101l-18.418,3.734c-7.411,1.503-12.587,7.833-12.587,15.395
	C125.777,87.798,130.953,94.129,138.364,95.632z M141.372,79.679l18.418-3.734c21.178-4.294,37.637-20.753,41.93-41.93l3.734-18.418
	c0.067-0.332,0.092-0.456,0.557-0.456c0.465,0,0.491,0.124,0.557,0.456l3.734,18.418c4.294,21.178,20.753,37.637,41.93,41.93
	l18.418,3.734c0.332,0.067,0.456,0.092,0.456,0.557c0,0.465-0.124,0.491-0.456,0.557l-18.418,3.734
	c-21.178,4.294-37.637,20.753-41.93,41.93l-3.734,18.418c-0.067,0.332-0.092,0.456-0.557,0.456c-0.465,0-0.491-0.124-0.557-0.456
	l-3.734-18.418c-4.294-21.178-20.753-37.637-41.93-41.93l-18.418-3.734c-0.332-0.067-0.456-0.092-0.456-0.557
	C140.916,79.771,141.041,79.746,141.372,79.679z"/>
<path d="M144.283,144.936c-3.006-2.905-7.796-2.824-10.702,0.181c-2.906,3.005-2.826,7.796,0.178,10.703
	c0.443,0.429,44.519,43.409,63.348,89.756c1.195,2.94,4.027,4.723,7.016,4.723c0.949,0,1.914-0.18,2.846-0.558
	c3.873-1.574,5.738-5.989,4.164-9.862C191.08,190.519,146.184,146.774,144.283,144.936z"/>
<path d="M230.864,153.406v69.64c0,4.181,3.389,7.57,7.57,7.57c4.181,0,7.57-3.389,7.57-7.57v-69.64c0-4.181-3.389-7.57-7.57-7.57
	C234.253,145.836,230.864,149.225,230.864,153.406z"/>
<path d="M358.697,173.617c-18.804,23.182-32.619,45.476-41.064,66.261c-1.574,3.873,0.292,8.289,4.164,9.862
	c0.934,0.378,1.898,0.558,2.846,0.558c2.989,0,5.822-1.782,7.016-4.723c9.817-24.163,26.515-47.283,38.795-62.422
	c2.633-3.247,2.137-8.014-1.11-10.647C366.098,169.872,361.33,170.369,358.697,173.617z"/>
<path d="M289.357,230.552c0.331,0.042,0.659,0.064,0.984,0.064c3.747,0,7.003-2.781,7.497-6.596l12.192-93.863
	c0.539-4.145-2.386-7.943-6.532-8.481c-4.147-0.54-7.943,2.386-8.481,6.532l-12.192,93.863
	C282.287,226.216,285.211,230.014,289.357,230.552z"/>
<g>
</g>
<g>
</g>
<g>
</g>
<g>
</g>
<g>
</g>
<g>
</g>
<g>
</g>
<g>
</g>
<g>
</g>
<g>
</g>
<g>
</g>
<g>
</g>
<g>
</g>
<g>
</g>
<g>
</g>
</svg>
